HIERARCHY
ROOT Hips
{
	OFFSET -10.056300 7.733760 -472.550000
	CHANNELS 6 Xposition Yposition Zposition Zrotation Yrotation Xrotation 
	JOINT Spine
	{
		OFFSET 0.000000 0.000000 0.000000
		CHANNELS 3 Zrotation Yrotation Xrotation
		JOINT Spine1
		{
			OFFSET 19.000000 0.000000 0.000000
			CHANNELS 3 Zrotation Yrotation Xrotation
			JOINT Neck
			{
				OFFSET 22.500000 0.600000 0.000000
				CHANNELS 3 Zrotation Yrotation Xrotation
				JOINT Head
				{
					OFFSET 14.000000 0.030878 0.000000
					CHANNELS 3 Zrotation Yrotation Xrotation
					End Site
					{
						OFFSET 17.000000 0.000000 0.000000
					}
				}
			}
			JOINT LeftShoulder
			{
				OFFSET 19.800000 3.700000 4.300000
				CHANNELS 3 Zrotation Yrotation Xrotation
				JOINT LeftArm
				{
					OFFSET 8.000000 0.000000 0.000000
					CHANNELS 3 Zrotation Yrotation Xrotation
					JOINT LeftForeArm
					{
						OFFSET 15.200000 0.000000 0.000000
						CHANNELS 3 Zrotation Yrotation Xrotation
						JOINT LeftHand
						{
							OFFSET 17.800000 0.000000 0.000000
							CHANNELS 3 Zrotation Yrotation Xrotation
							End Site
							{
								OFFSET 7.200000 0.000000 0.000000
							}
						}
					}
				}
			}
			JOINT RightShoulder
			{
				OFFSET 19.800000 3.700000 -4.300000
				CHANNELS 3 Zrotation Yrotation Xrotation
				JOINT RightArm
				{
					OFFSET 8.000000 0.000000 0.151654
					CHANNELS 3 Zrotation Yrotation Xrotation
					JOINT RightForeArm
					{
						OFFSET 15.200000 0.000000 0.000000
						CHANNELS 3 Zrotation Yrotation Xrotation
						JOINT RightHand
						{
							OFFSET 17.800000 0.000000 0.000000
							CHANNELS 3 Zrotation Yrotation Xrotation
							End Site
							{
								OFFSET 7.200000 0.000000 0.000000
							}
						}
					}
				}
			}
		}
	}
	JOINT LeftUpLeg
	{
		OFFSET 5.984250 -7.666000 4.788790
		CHANNELS 3 Zrotation Yrotation Xrotation
		JOINT LeftLeg
		{
			OFFSET 16.000000 0.000000 0.000000
			CHANNELS 3 Zrotation Yrotation Xrotation
			JOINT LeftFoot
			{
				OFFSET 18.000000 0.000000 0.000000
				CHANNELS 3 Zrotation Yrotation Xrotation
				End Site
				{
					OFFSET 0.000000 -10.800000 0.000000
				}
			}
		}
	}
	JOINT RightUpLeg
	{
		OFFSET 5.984250 -7.665980 -4.788790
		CHANNELS 3 Zrotation Yrotation Xrotation
		JOINT RightLeg
		{
			OFFSET 16.000000 0.000000 0.000000
			CHANNELS 3 Zrotation Yrotation Xrotation
			JOINT RightFoot
			{
				OFFSET 18.000000 0.000000 0.000000
				CHANNELS 3 Zrotation Yrotation Xrotation
				End Site
				{
					OFFSET 0.000000 -10.800000 0.000000
				}
			}
		}
	}
	JOINT Tail
	{
		OFFSET 6.836960 -0.722574 0.000000
		CHANNELS 3 Zrotation Yrotation Xrotation
		JOINT Tail1
		{
			OFFSET 12.000000 0.000000 0.000000
			CHANNELS 3 Zrotation Yrotation Xrotation
			End Site
			{
				OFFSET 12.000000 0.000000 0.000000
			}
		}
	}
}
MOTION
Frames: 11
Frame Time: 0.033333
62.529500 46.170200 -65.453000 -166.396072 61.520317 -168.389374 -162.829468 8.281620 5.100163 -11.424525 13.165426 -0.778509 -8.352500 14.185496 -10.869279 21.037647 17.405102 97.456688 51.914104 -28.202555 -144.045471 -99.290207 -35.244343 -136.137848 -61.668137 -2.240358 14.694283 -24.527559 -19.167257 5.357992 44.857529 35.868538 -42.482258 66.784790 -36.811340 -14.994527 -100.239609 -15.431384 11.454419 10.411132 -17.916723 1.604342 -110.631828 -16.758724 -1.422227 80.995483 4.340477 18.378489 42.219646 -7.761821 -4.348890 -139.403412 1.514266 4.214735 79.308815 -6.605487 -5.379485 42.118416 -1.767886 -0.224328 -3.970748 -32.257694 13.812761 9.189939 -3.374897 -7.804889 
62.984300 46.259400 -63.797200 -164.085709 62.422523 -166.458664 -162.831558 10.498168 5.267822 -10.138981 9.789387 -0.042237 -7.882760 14.989269 -11.624463 20.558455 17.393297 96.714790 54.640106 -27.549789 -146.305099 -96.938499 -35.074768 -138.442795 -58.147236 -3.636522 15.201143 -25.108778 -18.026892 5.115840 43.503883 36.251167 -43.663063 61.529907 -38.873203 -14.615127 -94.010887 -13.630138 6.086380 3.807754 -6.301228 1.537923 -106.378807 -16.953442 -2.149975 79.596115 4.300070 18.281174 43.610363 -7.652464 -4.294043 -139.391632 0.917256 2.956259 72.901962 -6.622005 -8.111919 46.968761 -1.271458 0.465873 -0.415073 -29.246275 10.445418 9.601383 -2.818311 -6.221184 
63.320500 46.346800 -62.064500 -161.544540 64.203163 -164.203568 -163.051926 11.244633 5.273195 -8.998665 6.880829 0.701060 -7.681956 16.151505 -12.501546 20.195976 17.029814 95.661362 57.398453 -26.759005 -148.579971 -93.854515 -34.531704 -139.884277 -54.354279 -4.938798 15.777897 -25.113575 -16.851721 4.702604 42.032543 37.164314 -44.995094 56.614079 -42.949192 -13.792548 -86.340614 -10.616368 0.680191 -0.703049 -0.329101 0.826479 -102.093575 -18.175846 -3.817543 77.944092 5.180362 18.190987 46.253448 -7.571142 -4.288274 -138.823868 -1.161384 1.819174 66.939049 -5.663076 -10.625256 52.284786 -0.990666 1.035765 2.513132 -24.979506 7.602536 10.183394 -2.202953 -4.700612 
63.537000 46.591600 -60.401100 -158.192764 66.375031 -161.696121 -163.477661 11.638570 4.853215 -7.364338 3.901046 1.090096 -8.168304 17.211695 -13.362115 20.124170 17.003374 95.046738 59.555489 -26.394699 -150.337921 -90.312721 -34.628536 -141.097183 -50.599159 -6.313029 15.580154 -23.724756 -15.332516 4.078206 40.073040 37.884911 -46.739117 51.597435 -48.625038 -7.576552 -75.926231 -6.595462 -9.685753 -3.629196 -6.671346 2.102523 -97.443001 -18.016737 -6.123776 75.260269 6.083792 17.610600 49.943069 -7.498311 -4.359420 -136.881088 -1.188064 2.559040 61.504757 -6.080093 -11.239138 58.225414 -0.951496 1.461902 4.745655 -20.130953 6.088111 10.581668 -1.240699 -3.260205 
63.601300 46.787500 -58.666500 -154.497467 68.903305 -159.231323 -164.414505 11.188440 4.149365 -5.532776 1.570175 1.200991 -9.075580 18.263041 -14.336954 20.052698 16.576447 93.998421 61.112213 -26.247213 -151.598724 -86.611549 -35.477421 -141.525833 -45.601460 -7.874250 15.456222 -22.476847 -14.028640 3.567534 37.760376 38.834019 -48.822701 52.494366 -51.515297 -9.961127 -68.460075 0.262847 -11.959527 -2.375037 -3.811512 0.981749 -93.172569 -17.655796 -8.926771 72.588478 7.306393 16.913311 54.077869 -7.449113 -4.488377 -133.174973 -1.643704 3.446120 56.475643 -5.958983 -7.896399 61.388092 -1.266796 1.275702 6.075838 -14.933942 5.908047 11.086477 -0.042489 -2.126851 
63.578300 46.802400 -56.969700 -150.030716 71.501945 -156.218704 -165.825790 9.697831 3.150282 -3.385150 0.604833 0.898874 -10.107392 18.524580 -14.928974 20.015652 16.474974 93.536591 61.715504 -26.526167 -152.077164 -84.007179 -36.488293 -141.078522 -40.941170 -9.209606 15.537037 -20.115732 -12.150998 2.720442 36.139061 39.440262 -50.288349 53.999477 -50.572552 -18.526217 -62.643536 5.255167 -13.524320 -2.327927 -2.270782 0.505680 -90.406937 -16.652615 -11.391450 71.900848 7.918379 15.798915 56.998489 -7.316998 -4.514155 -129.367477 -2.687883 3.545606 56.232555 -5.268551 -7.123349 56.960464 -1.079105 1.169727 6.927738 -10.096198 6.646831 11.537747 1.435909 -1.266918 
63.636700 46.540600 -55.283200 -146.774918 73.661789 -154.685791 -168.290405 8.451738 1.928774 -0.537295 0.403697 0.167320 -11.379458 18.242357 -15.086782 20.862679 16.409622 93.467896 61.223053 -27.233496 -151.660660 -83.183327 -36.738297 -139.594101 -38.696735 -9.046552 13.970540 -16.450960 -10.326262 1.980023 35.517445 39.713280 -50.856781 54.852585 -47.017200 -25.600515 -60.704334 3.207318 -13.875968 -7.832867 2.882179 -0.056445 -91.118462 -14.776019 -12.876676 74.961914 7.095440 13.980214 58.049393 -7.013371 -4.303157 -128.150116 -2.256245 3.554629 61.470238 -5.420526 -9.125524 49.522774 -0.408324 1.420186 6.755885 -6.256067 8.587060 12.355639 3.282705 -1.026044 
63.787400 46.085400 -53.458200 -144.106216 75.570862 -153.179047 -170.393784 7.194137 1.087522 1.651870 0.754102 -0.359414 -12.641502 17.486538 -15.496753 22.329187 17.021320 93.724228 59.305977 -28.173828 -150.075195 -86.221283 -36.163513 -138.101303 -41.695484 -7.310392 9.491951 -10.214942 -5.908469 0.910576 35.833637 40.037437 -50.615082 56.537315 -43.978737 -30.631079 -61.676182 0.363484 -17.539663 -13.904497 4.177175 0.086523 -94.431953 -13.629324 -13.309274 79.816322 5.790250 8.455454 59.125603 -6.324931 -3.625235 -127.741211 -1.956072 3.400774 64.388000 -5.319241 -8.489748 46.844067 -0.443132 1.219106 5.754733 -2.885476 10.969980 13.709358 5.414943 -1.670025 
63.959500 45.688000 -51.671200 -140.396530 77.226608 -150.112167 -170.764420 5.744048 0.705111 1.822091 1.617166 -0.617579 -13.271729 15.872959 -15.735315 23.582642 18.498281 94.780647 56.538826 -28.863747 -147.792862 -89.860870 -35.131435 -138.370789 -48.625675 -2.272655 -6.521341 3.641248 -6.643284 1.869316 36.766281 40.164230 -49.816555 60.979366 -43.606373 -34.525787 -63.976177 0.623065 -16.104277 -13.304656 6.289493 -0.629422 -98.664642 -12.834654 -12.706269 83.938377 4.529480 4.284466 59.607384 -5.768973 -3.086919 -127.853882 -1.561530 3.148740 69.318916 -5.258351 -9.319206 44.133110 -0.448780 1.006881 4.503485 0.135217 13.368737 14.868402 7.490453 -3.005066 
64.142700 45.447400 -49.909900 -134.345871 78.676079 -144.097183 -169.282425 3.974672 0.614144 0.005255 2.809841 -0.699296 -13.122390 14.407648 -16.154381 23.819937 20.142275 95.748108 53.278072 -29.419321 -145.095139 -91.792358 -33.895515 -134.122253 -56.085049 1.711360 -27.932447 18.795816 -16.868969 2.771377 38.639275 39.751934 -48.150486 65.139671 -41.356789 -39.318760 -67.311172 0.293306 -16.247818 -13.838224 8.242995 -1.166220 -103.036179 -12.071663 -11.285527 87.788422 3.283244 8.271441 54.910744 -5.855050 -3.219242 -127.185562 -1.737625 2.589502 73.502586 -4.964174 -11.305462 42.035114 -0.259193 1.035551 3.147845 3.183326 15.541884 15.358275 9.511303 -5.046054 
64.423300 45.281900 -48.108900 -127.759102 80.484169 -136.916946 -167.827087 1.658124 0.584114 -2.493138 4.473022 -0.715933 -12.220314 12.982558 -16.433397 22.931149 21.816456 96.799377 49.742962 -29.932308 -142.154953 -91.271622 -32.448723 -126.163368 -62.443398 3.673738 -45.990948 31.757973 -29.131582 0.468802 41.326511 38.892601 -45.751026 70.413864 -38.989697 -42.651196 -71.081596 0.220044 -17.670033 -14.515574 8.351516 -1.179045 -109.176392 -11.623794 -9.429861 93.143677 2.112409 12.910124 47.843918 -6.140716 -3.481038 -125.931534 -1.687741 2.969899 75.845894 -5.181797 -12.948331 40.734280 -0.000862 1.159770 1.171851 6.770474 17.126783 14.915782 10.959261 -7.615783 
